#!OML:ASF I:\Actors\actors\Patient Classification 2\Patient 1\Session 1\actor1.ASF
:FULLY-SPECIFIED
:DEGREES
373
root -0.66948 18.6285 6.6781 3.42093 -2.64713 -3.79567
lowerback 1.09792 2.28093 -0.857671
upperback -7.1327 2.98298 -0.536112
thorax -8.09331 1.50649 -0.326107
lowerneck -13.3778 -2.17726 -2.80259
upperneck 38.0141 -3.40349 2.51827
head 15.7862 -1.49066 1.00444
rclavicle -3.85642e-014 -1.43125e-014
rhumerus -29.287 59.9593 -76.1291
rradius 130.104
rwrist -49.4641
rhand 24.686 -21.9678
rfingers 7.12502
rthumb 48.8727 -43.7629
lclavicle -3.85642e-014 -1.43125e-014
lhumerus -39.2914 9.83028 23.4055
lradius 79.7627
lwrist 37.4696
lhand 1.16563 -9.67342
lfingers 7.12502
lthumb 26.7064 18.4621
rfemur 0 0 0
rtibia 0
rfoot 0 0
rtoes 0
lfemur -1.52308 -11.7031 -11.8938
ltibia 21.6664
lfoot -31.4084 22.118
ltoes -52.6669
374
root -0.654027 18.6306 6.66377 3.32264 -2.35727 -3.71795
lowerback 1.30702 2.14275 -0.767242
upperback -7.02137 2.80853 -0.425445
thorax -8.09467 1.41832 -0.251917
lowerneck -12.9118 -2.21062 -2.81181
upperneck 38.0699 -3.41479 2.38449
head 15.6989 -1.52022 0.951269
rclavicle -1.88845e-014 3.97569e-015
rhumerus -34.4481 57.9018 -80.5285
rradius 130.257
rwrist -48.5259
rhand 26.6921 -22.1698
rfingers 7.12502
rthumb 50.71 -43.0116
lclavicle -1.88845e-014 3.97569e-015
lhumerus -40.0349 10.2628 24.4861
lradius 81.9041
lwrist 36.706
lhand 3.6922 -9.97069
lfingers 7.12502
lthumb 29.1218 17.7721
rfemur 0 0 0
rtibia 0
rfoot 0 0
rtoes 0
lfemur -1.6101 -11.6095 -11.9558
ltibia 21.7353
lfoot -31.1136 21.9228
ltoes -52.8267
375
root -0.640352 18.6305 6.64936 3.20166 -2.1184 -3.63728
lowerback 1.44711 1.99908 -0.727691
upperback -6.87325 2.62569 -0.298051
thorax -8.01882 1.33016 -0.126717
lowerneck -12.4217 -2.19416 -2.68958
upperneck 38.1404 -3.3482 2.1425
head 15.6044 -1.5127 0.842074
rclavicle 4.25399e-014 7.95139e-016
rhumerus -37.548 56.2748 -84.0624
rradius 130.295
rwrist -48.0815
rhand 27.1234 -22.6897
rfingers 7.12502
rthumb 51.1032 -43.3134
lclavicle 4.25399e-014 7.95139e-016
lhumerus -40.964 11.8314 25.6978
lradius 84.3204
lwrist 36.0431
lhand 5.88928 -10.3836
lfingers 7.12502
lthumb 31.2178 16.9761
rfemur 0 0 0
rtibia 0
rfoot 0 0
rtoes 0
lfemur -1.66341 -11.443 -12.0173
ltibia 21.7974
lfoot -30.8338 21.7748
ltoes -53.032
376
root -0.628903 18.6293 6.63475 3.13823 -1.96172 -3.60503
lowerback 1.45201 1.88134 -0.657054
upperback -6.71233 2.48111 -0.157544
thorax -7.84913 1.25959 -0.0028464
lowerneck -12.0587 -2.16114 -2.58333
upperneck 38.3756 -3.27947 1.97093
head 15.6266 -1.4947 0.766187
rclavicle -2.04748e-014 5.56597e-015
rhumerus -40.2165 54.4985 -87.5614
rradius 130.242
rwrist -47.3909
rhand 27.8512 -23.11
rfingers 7.12502
rthumb 51.7651 -43.3541
lclavicle -2.04748e-014 5.56597e-015
lhumerus -41.987 13.9858 27.0305
lradius 86.9672
lwrist 35.9526
lhand 7.4198 -10.7025
lfingers 7.12502
lthumb 32.6752 16.3657
rfemur 0 0 0
rtibia 0
rfoot 0 0
rtoes 0
lfemur -1.72607 -11.2643 -12.0224
ltibia 21.8378
lfoot -30.6178 21.582
ltoes -53.1514
377
root -0.618117 18.6266 6.62068 3.13075 -1.88252 -3.57697
lowerback 1.36237 1.7385 -0.565534
upperback -6.5467 2.30424 -0.0108053
thorax -7.61826 1.17199 0.121157
lowerneck -11.7442 -2.07926 -2.40929
upperneck 38.5979 -3.12415 1.72139
head 15.6483 -1.44078 0.657907
rclavicle -2.27608e-014 -1.59028e-015
rhumerus -42.3565 52.8285 -91.0758
rradius 130.042
rwrist -46.2138
rhand 28.9237 -23.3668
rfingers 7.12502
rthumb 52.7368 -43.0244
lclavicle -2.27608e-014 -1.59028e-015
lhumerus -43.1042 16.441 28.2882
lradius 89.7027
lwrist 36.6286
lhand 8.66725 -10.6394
lfingers 7.12502
lthumb 33.8612 16.1751
rfemur 0 0 0
rtibia 0
rfoot 0 0
rtoes 0
lfemur -1.80625 -10.9491 -12.007
ltibia 21.8538
lfoot -30.3452 21.2283
ltoes -53.1955
378
root -0.608314 18.6215 6.60747 3.16059 -1.93971 -3.45601
lowerback 1.20432 1.62465 -0.561637
upperback -6.3531 2.15911 0.105251
thorax -7.32039 1.10404 0.260786
lowerneck -11.5002 -1.9753 -2.14765
upperneck 38.7192 -2.90834 1.352
head 15.6304 -1.36436 0.490728
rclavicle 2.20651e-014 1.15295e-014
rhumerus -43.975 51.3438 -94.3345
rradius 129.781
rwrist -44.8329
rhand 30.0317 -23.8154
rfingers 7.12502
rthumb 53.7355 -42.8308
lclavicle 2.20651e-014 1.15295e-014
lhumerus -44.0222 19.0521 29.5341
lradius 92.2998
lwrist 37.6897
lhand 9.9083 -10.0246
lfingers 7.12502
lthumb 35.0394 16.5223
rfemur 0 0 0
rtibia 0
rfoot 0 0
rtoes 0
lfemur -1.89466 -10.5405 -12.0995
ltibia 21.8621
lfoot -30.1659 20.8682
ltoes -53.1831
379
root -0.599531 18.6145 6.59613 3.18921 -2.15228 -3.2699
lowerback 1.0059 1.59162 -0.618531
upperback -6.15012 2.11467 0.146062
thorax -6.99032 1.08632 0.348459
lowerneck -11.3512 -1.93198 -2.02527
upperneck 38.9067 -2.84679 1.24416
head 15.6835 -1.33663 0.434206
rclavicle -1.04362e-014 1.98785e-015
rhumerus -44.8386 50.6234 -96.6347
rradius 129.476
rwrist -44.1373
rhand 30.1735 -24.4468
rfingers 7.12502
rthumb 53.8629 -43.3771
lclavicle -1.04362e-014 1.98785e-015
lhumerus -44.4857 21.4363 30.7975
lradius 94.475
lwrist 38.7078
lhand 10.9748 -9.12643
lfingers 7.12502
lthumb 36.0503 17.1777
rfemur 0 0 0
rtibia 0
rfoot 0 0
rtoes 0
lfemur -1.91316 -10.2541 -12.3216
ltibia 21.8573
lfoot -30.237 20.6727
ltoes -53.1832
380
root -0.592534 18.6081 6.5864 3.20957 -2.41546 -3.10833
lowerback 0.81547 1.58745 -0.628911
upperback -5.98084 2.10743 0.120609
thorax -6.69808 1.08198 0.337306
lowerneck -11.1797 -1.95651 -2.03493
upperneck 39.1898 -2.9805 1.45259
head 15.7958 -1.36791 0.505867
rclavicle 6.95746e-016 3.97569e-016
rhumerus -45.3938 50.91 -97.7691
rradius 129.209
rwrist -44.174
rhand 29.228 -24.6772
rfingers 7.12502
rthumb 53.0115 -44.1623
lclavicle 6.95746e-016 3.97569e-016
lhumerus -44.6321 23.2383 31.9304
lradius 95.9978
lwrist 39.3425
lhand 11.8211 -8.62771
lfingers 7.12502
lthumb 36.8515 17.475
rfemur 0 0 0
rtibia 0
rfoot 0 0
rtoes 0
lfemur -1.88283 -10.0842 -12.544
ltibia 21.8197
lfoot -30.318 20.7091
ltoes -53.3239
381
root -0.589351 18.6067 6.57478 3.28237 -2.64611 -2.94671
lowerback 0.57751 1.5817 -0.650732
upperback -5.82759 2.09481 0.033911
thorax -6.39438 1.0738 0.270421
lowerneck -10.9025 -2.00345 -1.97304
upperneck 39.3473 -3.1947 1.7254
head 15.8211 -1.41529 0.580783
rclavicle 6.5102e-015 8.74653e-015
rhumerus -45.4755 51.6589 -98.0528
rradius 129.135
rwrist -44.0093
rhand 28.1784 -24.8321
rfingers 7.12502
rthumb 52.062 -44.9009
lclavicle 6.5102e-015 8.74653e-015
lhumerus -44.613 24.2224 32.8044
lradius 96.9386
lwrist 39.6884
lhand 12.5892 -8.7545
lfingers 7.12502
lthumb 37.5778 17.1584
rfemur 0 0 0
rtibia 0
rfoot 0 0
rtoes 0
lfemur -1.94141 -9.84374 -12.7161
ltibia 21.7742
lfoot -30.2066 20.7664
ltoes -53.4463
382
root -0.587777 18.6099 6.56197 3.38637 -2.87617 -2.76074
lowerback 0.263828 1.5862 -0.732815
upperback -5.65122 2.09276 -0.0961924
thorax -6.02435 1.07271 0.194488
lowerneck -10.5892 -2.07574 -1.85119
upperneck 39.4063 -3.42915 1.91643
head 15.7846 -1.47469 0.606696
rclavicle 3.35946e-014 1.19271e-015
rhumerus -45.1029 52.7879 -97.4555
rradius 129.199
rwrist -43.8547
rhand 27.9838 -24.7092
rfingers 7.12502
rthumb 51.8855 -44.8826
lclavicle 3.35946e-014 1.19271e-015
lhumerus -44.5009 24.2587 33.4129
lradius 97.6527
lwrist 40.0912
lhand 13.0244 -9.07413
lfingers 7.12502
lthumb 37.9889 16.7281
rfemur 0 0 0
rtibia 0
rfoot 0 0
rtoes 0
lfemur -2.05539 -9.47325 -12.8814
ltibia 21.7523
lfoot -29.9946 20.6961
ltoes -53.409
383
root -0.584272 18.6143 6.55244 3.41281 -3.12728 -2.681
lowerback -0.028524 1.61505 -0.698799
upperback -5.43555 2.12937 -0.209701
thorax -5.62289 1.0855 0.0696141
lowerneck -10.2951 -2.16763 -1.7384
upperneck 39.5261 -3.66851 2.05053
head 15.7838 -1.54501 0.60932
rclavicle 2.01269e-014 3.97569e-016
rhumerus -44.4951 53.9303 -96.203
rradius 129.484
rwrist -44.0192
rhand 28.4672 -24.7087
rfingers 7.12502
rthumb 52.3238 -44.62
lclavicle 2.01269e-014 3.97569e-016
lhumerus -44.2264 23.4399 33.8515
lradius 98.2582
lwrist 40.4563
lhand 12.9486 -9.3566
lfingers 7.12502
lthumb 37.9173 16.4651
rfemur 0 0 0
rtibia 0
rfoot 0 0
rtoes 0
lfemur -2.04465 -9.20238 -12.9767
ltibia 21.722
lfoot -29.955 20.6494
ltoes -53.1886
384
root -0.579598 18.6187 6.54432 3.3459 -3.35654 -2.74442
lowerback -0.234419 1.66786 -0.480735
upperback -5.19324 2.20438 -0.293629
thorax -5.23822 1.1103 -0.130437
lowerneck -9.98256 -2.2395 -1.6755
upperneck 39.6418 -3.86943 2.20815
head 15.7777 -1.60319 0.638089
rclavicle 9.39258e-015 -2.38542e-015
rhumerus -43.7517 54.7862 -94.5284
rradius 129.911
rwrist -44.2865
rhand 28.3394 -24.7647
rfingers 7.12502
rthumb 52.208 -44.746
lclavicle 9.39258e-015 -2.38542e-015
lhumerus -43.6688 21.851 34.1682
lradius 98.6913
lwrist 40.7711
lhand 12.3808 -9.62681
lfingers 7.12502
lthumb 37.3808 16.3382
rfemur 0 0 0
rtibia 0
rfoot 0 0
rtoes 0
lfemur -1.93419 -9.07692 -12.9589
ltibia 21.7081
lfoot -30.09 20.6475
ltoes -52.906
